{
    "asset": {
        "generator": "COLLADA2GLTF",
        "version": "2.0"
    },
    "scenes": [
        {
            "nodes": [
                0
            ]
        }
    ],
    "scene": 0,
    "nodes": [
        {
            "children": [
                5,
                4,
                3,
                2,
                1
            ],
            "name": "Y_UP"
        },
        {
            "mesh": 0,
            "name": "{0F468177-0E21-4b92-85ED-F7F9766B61F1}_Node"
        },
        {
            "mesh": 1,
            "name": "{F93E2473-7A14-4adc-BF7C-D00C8F698B2A}_Node"
        },
        {
            "mesh": 2,
            "name": "{2A0F8DE6-0ADB-4e56-90E3-6B361664F852}_Node"
        },
        {
            "mesh": 3,
            "name": "{98B62B72-ABA2-4e50-99EF-2147D23925CF}_Node"
        },
        {
            "mesh": 4,
            "name": "{8CBBA50E-DD50-4562-A49F-E0DE962C18FA}_Node"
        }
    ],
    "meshes": [
        {
            "primitives": [
                {
                    "attributes": {
                        "NORMAL": 1,
                        "POSITION": 2
                    },
                    "indices": 0,
                    "mode": 4,
                    "material": 0
                }
            ],
            "name": "{0F468177-0E21-4b92-85ED-F7F9766B61F1}"
        },
        {
            "primitives": [
                {
                    "attributes": {
                        "NORMAL": 4,
                        "POSITION": 5,
                        "TEXCOORD_0": 6
                    },
                    "indices": 3,
                    "mode": 4,
                    "material": 1
                }
            ],
            "name": "{F93E2473-7A14-4adc-BF7C-D00C8F698B2A}"
        },
        {
            "primitives": [
                {
                    "attributes": {
                        "NORMAL": 8,
                        "POSITION": 9,
                        "TEXCOORD_0": 10
                    },
                    "indices": 7,
                    "mode": 4,
                    "material": 2
                }
            ],
            "name": "{2A0F8DE6-0ADB-4e56-90E3-6B361664F852}"
        },
        {
            "primitives": [
                {
                    "attributes": {
                        "NORMAL": 12,
                        "POSITION": 13
                    },
                    "indices": 11,
                    "mode": 4,
                    "material": 3
                }
            ],
            "name": "{98B62B72-ABA2-4e50-99EF-2147D23925CF}"
        },
        {
            "primitives": [
                {
                    "attributes": {
                        "NORMAL": 15,
                        "POSITION": 16
                    },
                    "indices": 14,
                    "mode": 4,
                    "material": 4
                }
            ],
            "name": "{8CBBA50E-DD50-4562-A49F-E0DE962C18FA}"
        }
    ],
    "accessors": [
        {
            "bufferView": 0,
            "byteOffset": 0,
            "componentType": 5123,
            "count": 8760,
            "max": [
                3019
            ],
            "min": [
                0
            ],
            "type": "SCALAR"
        },
        {
            "bufferView": 1,
            "byteOffset": 0,
            "componentType": 5126,
            "count": 3020,
            "max": [
                1.0,
                1.0,
                1.0
            ],
            "min": [
                -1.0,
                -1.0,
                -1.0
            ],
            "type": "VEC3"
        },
        {
            "bufferView": 1,
            "byteOffset": 36240,
            "componentType": 5126,
            "count": 3020,
            "max": [
                0.42600002884864809,
                0.7620000243186951,
                0.5864999890327454
            ],
            "min": [
                0.3930000066757202,
                -0.012000000104308129,
                0.03350000083446503
            ],
            "type": "VEC3"
        },
        {
            "bufferView": 0,
            "byteOffset": 17520,
            "componentType": 5123,
            "count": 36,
            "max": [
                23
            ],
            "min": [
                0
            ],
            "type": "SCALAR"
        },
        {
            "bufferView": 1,
            "byteOffset": 72480,
            "componentType": 5126,
            "count": 24,
            "max": [
                1.0,
                1.0,
                1.0
            ],
            "min": [
                -1.0,
                -1.0,
                -1.0
            ],
            "type": "VEC3"
        },
        {
            "bufferView": 1,
            "byteOffset": 72768,
            "componentType": 5126,
            "count": 24,
            "max": [
                0.4190000295639038,
                0.75,
                0.6000000238418579
            ],
            "min": [
                0.4000000059604645,
                0.0,
                0.0
            ],
            "type": "VEC3"
        },
        {
            "bufferView": 2,
            "byteOffset": 0,
            "componentType": 5126,
            "count": 24,
            "max": [
                6.123230292458899e-17,
                1.0
            ],
            "min": [
                -1.0,
                0.0
            ],
            "type": "VEC2"
        },
        {
            "bufferView": 0,
            "byteOffset": 17592,
            "componentType": 5123,
            "count": 36,
            "max": [
                23
            ],
            "min": [
                0
            ],
            "type": "SCALAR"
        },
        {
            "bufferView": 1,
            "byteOffset": 73056,
            "componentType": 5126,
            "count": 24,
            "max": [
                1.0,
                1.0,
                1.0
            ],
            "min": [
                -1.0,
                -1.0,
                -1.0
            ],
            "type": "VEC3"
        },
        {
            "bufferView": 1,
            "byteOffset": 73344,
            "componentType": 5126,
            "count": 24,
            "max": [
                1.0,
                0.7690000534057617,
                0.6000000238418579
            ],
            "min": [
                0.0,
                0.75,
                0.0
            ],
            "type": "VEC3"
        },
        {
            "bufferView": 2,
            "byteOffset": 192,
            "componentType": 5126,
            "count": 24,
            "max": [
                6.123230292458899e-17,
                1.0
            ],
            "min": [
                -1.0,
                0.0
            ],
            "type": "VEC2"
        },
        {
            "bufferView": 0,
            "byteOffset": 17664,
            "componentType": 5123,
            "count": 903,
            "max": [
                302
            ],
            "min": [
                0
            ],
            "type": "SCALAR"
        },
        {
            "bufferView": 1,
            "byteOffset": 73632,
            "componentType": 5126,
            "count": 303,
            "max": [
                1.0,
                0.0,
                0.0
            ],
            "min": [
                -1.0,
                0.0,
                0.0
            ],
            "type": "VEC3"
        },
        {
            "bufferView": 1,
            "byteOffset": 77268,
            "componentType": 5126,
            "count": 303,
            "max": [
                0.3994999825954437,
                0.45824500918388369,
                0.502240002155304
            ],
            "min": [
                0.3994999825954437,
                0.2912920117378235,
                0.47062501311302187
            ],
            "type": "VEC3"
        },
        {
            "bufferView": 0,
            "byteOffset": 19470,
            "componentType": 5123,
            "count": 903,
            "max": [
                302
            ],
            "min": [
                0
            ],
            "type": "SCALAR"
        },
        {
            "bufferView": 1,
            "byteOffset": 80904,
            "componentType": 5126,
            "count": 303,
            "max": [
                0.0,
                1.0,
                0.0
            ],
            "min": [
                0.0,
                -1.0,
                0.0
            ],
            "type": "VEC3"
        },
        {
            "bufferView": 1,
            "byteOffset": 84540,
            "componentType": 5126,
            "count": 303,
            "max": [
                0.5832449793815613,
                0.7694999575614929,
                0.502240002155304
            ],
            "min": [
                0.4162920117378235,
                0.7694999575614929,
                0.47062501311302187
            ],
            "type": "VEC3"
        }
    ],
    "materials": [
        {
            "pbrMetallicRoughness": {
                "baseColorFactor": [
                    0.0,
                    0.0,
                    0.6000000238418579,
                    1.0
                ],
                "metallicFactor": 0.0
            },
            "emissiveFactor": [
                0.0,
                0.0,
                0.0
            ],
            "name": "{F9300D3A-A76F-4e0b-A069-824BA333D789}-Effect"
        },
        {
            "pbrMetallicRoughness": {
                "baseColorTexture": {
                    "index": 0
                },
                "metallicFactor": 0.0
            },
            "emissiveFactor": [
                0.0,
                0.0,
                0.0
            ],
            "name": "{B363EADB-BF6B-41e6-956C-952913E5C1B0}-Effect"
        },
        {
            "pbrMetallicRoughness": {
                "baseColorTexture": {
                    "index": 1
                },
                "metallicFactor": 0.0
            },
            "emissiveFactor": [
                0.0,
                0.0,
                0.0
            ],
            "name": "{962C3B8F-0DCE-4be3-A5BF-2EBCAD2BBDA9}-Effect"
        },
        {
            "pbrMetallicRoughness": {
                "baseColorFactor": [
                    0.0,
                    0.0,
                    0.0,
                    1.0
                ],
                "metallicFactor": 0.0
            },
            "emissiveFactor": [
                0.0,
                0.0,
                0.0
            ],
            "name": "{FEA0F0B4-315D-457f-9004-0B087FCF0A7C}-Effect"
        },
        {
            "pbrMetallicRoughness": {
                "baseColorFactor": [
                    0.0,
                    0.0,
                    0.0,
                    1.0
                ],
                "metallicFactor": 0.0
            },
            "emissiveFactor": [
                0.0,
                0.0,
                0.0
            ],
            "name": "{FEA0F0B4-315D-457f-9004-0B087FCF0A7C}-Effect"
        }
    ],
    "textures": [
        {
            "sampler": 0,
            "source": 0
        },
        {
            "sampler": 0,
            "source": 1
        }
    ],
    "images": [
        {
            "uri": "data:image/jpeg;base64,"
        },
        {
            "uri": "data:image/jpeg;base64,"
        }
    ],
    "samplers": [
        {
            "magFilter": 9729,
            "minFilter": 9986,
            "wrapS": 10497,
            "wrapT": 10497
        }
    ],
    "bufferViews": [
        {
            "buffer": 0,
            "byteOffset": 88560,
            "byteLength": 21276,
            "target": 34963
        },
        {
            "buffer": 0,
            "byteOffset": 0,
            "byteLength": 88176,
            "byteStride": 12,
            "target": 34962
        },
        {
            "buffer": 0,
            "byteOffset": 88176,
            "byteLength": 384,
            "byteStride": 8,
            "target": 34962
        }
    ],
    "buffers": [
        {
            "byteLength": 109836,
            "uri": "data:application/octet-stream;base64,"
        }
    ]
}
